<?xml version="1.0" encoding="UTF-8" standalone="no"?>
<!-- Generator: Adobe Illustrator 18.0.0, SVG Export Plug-In . SVG Version: 6.00 Build 0)  -->

<svg
   xmlns:dc="http://purl.org/dc/elements/1.1/"
   xmlns:cc="http://creativecommons.org/ns#"
   xmlns:rdf="http://www.w3.org/1999/02/22-rdf-syntax-ns#"
   xmlns:svg="http://www.w3.org/2000/svg"
   xmlns="http://www.w3.org/2000/svg"
   xmlns:sodipodi="http://sodipodi.sourceforge.net/DTD/sodipodi-0.dtd"
   xmlns:inkscape="http://www.inkscape.org/namespaces/inkscape"
   version="1.1"
   id="Capa_1"
   x="0px"
   y="0px"
   viewBox="0 0 411 138.63644"
   enable-background="new 0 0 960 560"
   xml:space="preserve"
   inkscape:version="0.91 r13725"
   sodipodi:docname="alarmas-pretorian.svg"
   width="411"
   height="138.63644"><metadata
     id="metadata67"><rdf:RDF><cc:Work
         rdf:about=""><dc:format>image/svg+xml</dc:format><dc:type
           rdf:resource="http://purl.org/dc/dcmitype/StillImage" /><dc:title></dc:title></cc:Work></rdf:RDF></metadata><defs
     id="defs65" /><sodipodi:namedview
     pagecolor="#ffffff"
     bordercolor="#666666"
     borderopacity="1"
     objecttolerance="10"
     gridtolerance="10"
     guidetolerance="10"
     inkscape:pageopacity="0"
     inkscape:pageshadow="2"
     inkscape:window-width="1280"
     inkscape:window-height="972"
     id="namedview63"
     showgrid="false"
     fit-margin-top="0"
     fit-margin-left="0"
     fit-margin-right="0"
     fit-margin-bottom="0"
     inkscape:zoom="0.37708333"
     inkscape:cx="-150.24475"
     inkscape:cy="69.467209"
     inkscape:window-x="-8"
     inkscape:window-y="-8"
     inkscape:window-maximized="1"
     inkscape:current-layer="Capa_1" /><g
     id="g4195"
     transform="translate(-260.3,-210.83077)"><g
       id="g3"><g
         id="g5"><g
           id="g7"><path
             id="path9"
             d="m 346.4,345.8 c -3.2,-6.1 -12.3,-13.8 -27.6,-24.8 0,0 11.2,1.2 13.2,4.6 l 0,-10.4 9.2,-0.5 c 0,0 7.1,-7.8 5,-31.8 l -30.2,0 c 0,0 -0.5,12.2 17,12.2 l 2.7,16 c 0,0 -17.8,5.4 -29.8,-8.9 l 0,18.7 c 0,0 -7.8,5.9 -13.7,14.7 0,0 -3.2,3.1 0.9,5.5 0,0 10.4,10.7 51.6,7.9 0.1,0.2 2.6,-1.4 1.7,-3.2 z"
             inkscape:connector-curvature="0"
             style="fill:#d7d7d7" /></g><g
           id="g11"><path
             id="path13"
             d="m 349,279.1 c 0,0 6.2,-7.1 10.1,-26.7 0,0 -11.5,-0.7 -18.4,3 0,0 -35.2,-9.7 -38.9,28.1 0,0 1.2,26.7 30.2,26 l 0,-9.4 c 0,0 -21.2,0.9 -19.9,-20.7 l 36.9,-0.3 z"
             inkscape:connector-curvature="0"
             style="fill:#d7d7d7" /></g><g
           id="g15"><path
             id="path17"
             d="m 361.7,247.3 11.7,-17 c 0,0 0.5,-8.4 -9.6,-7.7 0,0 -1.3,-7.4 -10.7,-6.4 0,0 -6,-6.3 -12.3,-2.1 0,0 -4.5,-6 -11.3,-1.3 0,0 -7.5,-5.2 -12.7,1.3 0,0 -9.4,-2.8 -10.8,2.6 0,0 -9.4,-0.7 -12,5.4 0,0 -8.6,-0.6 -9.8,6.7 l -2.3,1.7 c 0,0 -5.1,-0.7 -7.1,7.9 l 30.2,24.3 c 0,0 5,-13.1 34.7,-12.2 0.1,-0.1 6,-2.7 22,-3.2 z"
             inkscape:connector-curvature="0"
             style="fill:#d7d7d7" /></g><g
           id="g19"><path
             id="path21"
             d="m 351.2,345.8 c 0,0 -0.9,-2.5 -1.9,-4.2 -2.5,-3.9 -4.3,-5.4 -4.3,-5.4 24.1,-8.1 42.4,-30.9 42.4,-55.2 0,-14.9 -5.4,-29 -15.7,-39.8 l 6.2,-8.5 c 12.2,12.9 20.5,30.6 20.5,48.3 0.1,28.9 -18.7,55.2 -47.2,64.8 z"
             inkscape:connector-curvature="0"
             style="fill:#d7d7d7" /></g><g
           id="g23"><path
             id="path25"
             d="m 286.6,335.3 c -16.7,-13.2 -26.3,-33 -26.3,-54.3 0,-14.1 4.2,-27.6 12.2,-39.2 l 9.1,6.3 c -6.7,9.7 -10.2,21.1 -10.2,32.9 0,17.9 8.1,34.5 22.1,45.6 l -6.9,8.7 z"
             inkscape:connector-curvature="0"
             style="fill:#d7d7d7" /></g></g></g><g
       id="g27"><path
         id="path29"
         d="m 442.4,273.5 -13.4,0 -2,5.3 -7.6,0 12.1,-31.3 8.4,0 12.1,31.3 -7.6,0 -2,-5.3 z m -11.6,-5.9 9.8,0 -4.9,-13.5 -4.9,13.5 z"
         inkscape:connector-curvature="0"
         style="fill:#d7d7d7" /><path
         id="path31"
         d="m 453.4,247.5 6.7,0 0,25.5 13.2,0 0,5.9 -20,0 0,-31.4 z"
         inkscape:connector-curvature="0"
         style="fill:#d7d7d7" /><path
         id="path33"
         d="m 496.4,273.5 -13.4,0 -2,5.3 -7.6,0 12.1,-31.3 8.4,0 12.1,31.3 -7.6,0 -2,-5.3 z m -11.6,-5.9 9.8,0 -4.9,-13.5 -4.9,13.5 z"
         inkscape:connector-curvature="0"
         style="fill:#d7d7d7" /><path
         id="path35"
         d="m 519.2,267.7 -4.9,0 0,11.1 -6.7,0 0,-31.3 14.7,0 c 1.6,0 3.1,0.3 4.4,0.8 1.3,0.5 2.4,1.2 3.3,2.1 0.9,0.9 1.6,2 2.1,3.2 0.5,1.2 0.7,2.6 0.7,4 0,1.4 -0.2,2.6 -0.6,3.7 -0.4,1.1 -0.9,2 -1.6,2.7 -0.6,0.8 -1.4,1.4 -2.2,1.9 -0.8,0.5 -1.7,0.8 -2.5,1 l 7.1,11.9 -7.7,0 -6.1,-11.1 z m 5.5,-7 c 0.9,-0.8 1.3,-1.8 1.3,-3.1 0,-1.3 -0.4,-2.3 -1.3,-3.1 -0.9,-0.7 -2,-1.1 -3.3,-1.1 l -7,0 0,8.5 7,0 c 1.3,-0.1 2.4,-0.5 3.3,-1.2 z"
         inkscape:connector-curvature="0"
         style="fill:#d7d7d7" /><path
         id="path37"
         d="m 563.9,256.2 -8.8,22.6 -2.9,0 -8.8,-22.6 0,22.6 -6.7,0 0,-31.3 9.3,0 7.6,19.6 7.6,-19.6 9.4,0 0,31.3 -6.7,0 0,-22.6 z"
         inkscape:connector-curvature="0"
         style="fill:#d7d7d7" /><path
         id="path39"
         d="m 595.4,273.5 -13.4,0 -2,5.3 -7.6,0 12.1,-31.3 8.4,0 12.1,31.3 -7.6,0 -2,-5.3 z m -11.6,-5.9 9.8,0 -4.9,-13.5 -4.9,13.5 z"
         inkscape:connector-curvature="0"
         style="fill:#d7d7d7" /><path
         id="path41"
         d="m 609.7,278 c -2.2,-0.9 -4,-2.1 -5.5,-3.6 l 3.7,-5.2 c 1.1,1.2 2.5,2.2 4.2,3 1.7,0.8 3.6,1.3 5.8,1.3 1.9,0 3.3,-0.4 4.1,-1.1 0.9,-0.7 1.3,-1.5 1.3,-2.4 0,-0.9 -0.4,-1.6 -1.3,-2.1 -0.9,-0.5 -2,-0.9 -3.3,-1.2 -1.3,-0.3 -2.8,-0.7 -4.3,-1.1 -1.5,-0.4 -3,-0.9 -4.3,-1.6 -1.3,-0.7 -2.4,-1.6 -3.3,-2.8 -0.9,-1.2 -1.3,-2.7 -1.3,-4.7 0,-1.3 0.3,-2.5 0.8,-3.7 0.5,-1.1 1.3,-2.2 2.3,-3 1,-0.8 2.3,-1.6 3.7,-2.1 1.4,-0.5 3.1,-0.8 5,-0.8 5,0 9,1.5 12.2,4.4 l -3.7,5 c -1.3,-1.2 -2.7,-2.1 -4.3,-2.6 -1.6,-0.5 -3.2,-0.8 -4.8,-0.8 -1.4,0 -2.5,0.3 -3.3,0.8 -0.8,0.6 -1.2,1.3 -1.2,2.3 0,0.8 0.4,1.4 1.3,1.9 0.9,0.4 2,0.8 3.3,1.2 l 4.3,1.1 c 1.5,0.4 3,0.9 4.3,1.6 1.3,0.7 2.4,1.7 3.3,2.8 0.9,1.1 1.3,2.8 1.3,4.7 0,1.4 -0.3,2.8 -0.8,4 -0.5,1.2 -1.3,2.3 -2.3,3.2 -1,0.9 -2.4,1.6 -3.9,2.1 -1.6,0.5 -3.4,0.8 -5.5,0.8 -3.1,-0.1 -5.7,-0.5 -7.8,-1.4 z"
         inkscape:connector-curvature="0"
         style="fill:#d7d7d7" /></g><g
       id="g43"><path
         id="path45"
         d="m 422.8,286.4 14.7,0 c 1.7,0 3.2,0.3 4.5,0.8 1.3,0.5 2.4,1.3 3.3,2.2 0.9,0.9 1.6,2 2,3.2 0.5,1.2 0.7,2.5 0.7,3.9 0,1.4 -0.2,2.7 -0.7,3.9 -0.5,1.2 -1.2,2.3 -2,3.2 -0.9,0.9 -2,1.7 -3.3,2.2 -1.3,0.5 -2.8,0.8 -4.5,0.8 l -8,0 0,11.2 -6.7,0 0,-31.4 z m 17,13.1 c 0.9,-0.7 1.3,-1.8 1.3,-3.1 0,-1.3 -0.4,-2.3 -1.3,-3.1 -0.9,-0.8 -2,-1.1 -3.3,-1.1 l -7,0 0,8.4 7,0 c 1.3,0 2.4,-0.3 3.3,-1.1 z"
         inkscape:connector-curvature="0"
         style="fill:#d7d7d7" /><path
         id="path47"
         d="m 463.2,306.6 -4.9,0 0,11.1 -6.7,0 0,-31.3 14.7,0 c 1.6,0 3.1,0.3 4.4,0.8 1.3,0.5 2.4,1.2 3.3,2.1 0.9,0.9 1.6,2 2.1,3.2 0.5,1.2 0.7,2.6 0.7,4 0,1.4 -0.2,2.6 -0.6,3.7 -0.4,1.1 -0.9,2 -1.6,2.7 -0.6,0.8 -1.4,1.4 -2.2,1.9 -0.8,0.5 -1.7,0.8 -2.5,1 l 7.1,11.9 -7.7,0 -6.1,-11.1 z m 5.5,-7 c 0.9,-0.8 1.3,-1.8 1.3,-3.1 0,-1.3 -0.4,-2.3 -1.3,-3.1 -0.9,-0.7 -2,-1.1 -3.3,-1.1 l -7,0 0,8.5 7,0 c 1.3,-0.1 2.4,-0.5 3.3,-1.2 z"
         inkscape:connector-curvature="0"
         style="fill:#d7d7d7" /><path
         id="path49"
         d="m 481.4,286.4 22.2,0 0,5.9 -15.6,0 0,6.6 15.2,0 0,5.9 -15.2,0 0,7.1 15.5,0 0,5.9 -22.2,0 0,-31.4 z"
         inkscape:connector-curvature="0"
         style="fill:#d7d7d7" /><path
         id="path51"
         d="m 515.5,292.2 -9.2,0 0,-5.9 25,0 0,5.9 -9.1,0 0,25.5 -6.7,0 0,-25.5 z"
         inkscape:connector-curvature="0"
         style="fill:#d7d7d7" /><path
         id="path53"
         d="m 542.3,317.1 c -2,-0.8 -3.7,-1.9 -5.2,-3.4 -1.5,-1.4 -2.6,-3.2 -3.4,-5.1 -0.8,-2 -1.2,-4.2 -1.2,-6.5 0,-2.3 0.4,-4.5 1.2,-6.5 0.8,-2 1.9,-3.7 3.4,-5.1 1.5,-1.4 3.2,-2.6 5.2,-3.4 2,-0.8 4.2,-1.2 6.6,-1.2 2.3,0 4.5,0.4 6.5,1.2 2,0.8 3.7,1.9 5.2,3.4 1.5,1.4 2.6,3.2 3.4,5.1 0.8,1.9 1.2,4.2 1.2,6.5 0,2.3 -0.4,4.5 -1.2,6.5 -0.8,2 -1.9,3.7 -3.4,5.1 -1.5,1.4 -3.2,2.6 -5.2,3.4 -2,0.8 -4.2,1.2 -6.5,1.2 -2.4,-0.1 -4.6,-0.5 -6.6,-1.2 z m 10.5,-5.6 c 1.2,-0.5 2.2,-1.3 3,-2.2 0.8,-0.9 1.4,-2 1.9,-3.2 0.5,-1.3 0.7,-2.6 0.7,-4.1 0,-1.5 -0.2,-2.8 -0.7,-4.1 -0.5,-1.3 -1.1,-2.3 -1.9,-3.3 -0.8,-0.9 -1.8,-1.6 -3,-2.2 -1.2,-0.5 -2.5,-0.8 -3.9,-0.8 -1.5,0 -2.8,0.3 -4,0.8 -1.2,0.5 -2.2,1.2 -3,2.2 -0.8,1 -1.4,2 -1.9,3.3 -0.5,1.3 -0.7,2.6 -0.7,4.1 0,1.5 0.2,2.8 0.7,4.1 0.5,1.3 1.1,2.3 1.9,3.2 0.8,0.9 1.8,1.6 3,2.2 1.2,0.5 2.5,0.8 4,0.8 1.5,0 2.8,-0.2 3.9,-0.8 z"
         inkscape:connector-curvature="0"
         style="fill:#d7d7d7" /><path
         id="path55"
         d="m 581,306.6 -4.9,0 0,11.1 -6.7,0 0,-31.3 14.7,0 c 1.6,0 3.1,0.3 4.4,0.8 1.3,0.5 2.4,1.2 3.3,2.1 0.9,0.9 1.6,2 2.1,3.2 0.5,1.2 0.7,2.6 0.7,4 0,1.4 -0.2,2.6 -0.6,3.7 -0.4,1.1 -0.9,2 -1.6,2.7 -0.6,0.8 -1.4,1.4 -2.2,1.9 -0.8,0.5 -1.7,0.8 -2.5,1 l 7.1,11.9 -7.7,0 -6.1,-11.1 z m 5.5,-7 c 0.9,-0.8 1.3,-1.8 1.3,-3.1 0,-1.3 -0.4,-2.3 -1.3,-3.1 -0.9,-0.7 -2,-1.1 -3.3,-1.1 l -7,0 0,8.5 7,0 c 1.3,-0.1 2.4,-0.5 3.3,-1.2 z"
         inkscape:connector-curvature="0"
         style="fill:#d7d7d7" /><path
         id="path57"
         d="m 599.2,286.4 6.7,0 0,31.3 -6.7,0 0,-31.3 z"
         inkscape:connector-curvature="0"
         style="fill:#d7d7d7" /><path
         id="path59"
         d="m 631.3,312.4 -13.4,0 -2,5.3 -7.6,0 12.1,-31.3 8.4,0 12.1,31.3 -7.6,0 -2,-5.3 z m -11.6,-5.9 9.8,0 -4.9,-13.5 -4.9,13.5 z"
         inkscape:connector-curvature="0"
         style="fill:#d7d7d7" /><path
         id="path61"
         d="m 649.9,297.3 0,20.4 -6.7,0 0,-31.3 6.9,0 14.5,19.7 0,-19.7 6.7,0 0,31.3 -6.4,0 -15,-20.4 z"
         inkscape:connector-curvature="0"
         style="fill:#d7d7d7" /></g></g></svg>