<?xml version="1.0" encoding="UTF-8" standalone="no"?>
<!-- Generator: Adobe Illustrator 18.0.0, SVG Export Plug-In . SVG Version: 6.00 Build 0)  -->

<svg
   xmlns:dc="http://purl.org/dc/elements/1.1/"
   xmlns:cc="http://creativecommons.org/ns#"
   xmlns:rdf="http://www.w3.org/1999/02/22-rdf-syntax-ns#"
   xmlns:svg="http://www.w3.org/2000/svg"
   xmlns="http://www.w3.org/2000/svg"
   xmlns:sodipodi="http://sodipodi.sourceforge.net/DTD/sodipodi-0.dtd"
   xmlns:inkscape="http://www.inkscape.org/namespaces/inkscape"
   version="1.1"
   id="Capa_1"
   x="0px"
   y="0px"
   viewBox="0 0 438.49301 146.85298"
   enable-background="new 0 0 960 560"
   xml:space="preserve"
   inkscape:version="0.91 r13725"
   sodipodi:docname="pretorian-consulting.svg"
   width="438.49301"
   height="146.85298"><metadata
     id="metadata35"><rdf:RDF><cc:Work
         rdf:about=""><dc:format>image/svg+xml</dc:format><dc:type
           rdf:resource="http://purl.org/dc/dcmitype/StillImage" /><dc:title></dc:title></cc:Work></rdf:RDF></metadata><defs
     id="defs33" /><sodipodi:namedview
     pagecolor="#cccccc"
     bordercolor="#666666"
     borderopacity="1"
     objecttolerance="10"
     gridtolerance="10"
     guidetolerance="10"
     inkscape:pageopacity="0"
     inkscape:pageshadow="2"
     inkscape:window-width="1280"
     inkscape:window-height="972"
     id="namedview31"
     showgrid="false"
     fit-margin-top="0"
     fit-margin-left="0"
     fit-margin-right="0"
     fit-margin-bottom="0"
     inkscape:zoom="0.53327636"
     inkscape:cx="-1.4982938"
     inkscape:cy="-128.94158"
     inkscape:window-x="-8"
     inkscape:window-y="-8"
     inkscape:window-maximized="1"
     inkscape:current-layer="Capa_1" /><g
     id="g4203"
     transform="translate(-392.7,-234.52297)"><g
       id="g3"><g
         id="g5"><g
           id="g7"><path
             id="path9"
             d="m 483.7,377.4 c -3.3,-6.5 -12.6,-14.6 -28.7,-26.2 0,0 12.2,1.2 14.4,4.9 l 0,-11 9.3,-0.2 c 0,0 7.1,-7.8 4.9,-33.4 l -31.9,0 c 0,0 -0.5,12.7 18,12.7 l 2.9,16.8 c 0,0 -18,5.6 -31.4,-9.5 l 0,19.7 c 0,0 -8.4,6.3 -14.6,15.5 0,0 -3.5,3.3 0.9,5.8 0,0 11,11.3 54.6,8.4 -0.1,0 2.5,-1.7 1.6,-3.5 z"
             inkscape:connector-curvature="0"
             style="fill:#ffffff" /></g><g
           id="g11"><path
             id="path13"
             d="m 486.4,306.9 c 0,0 6.6,-7.5 10.7,-28.2 0,0 -12.2,-0.7 -19.5,3.2 0,0 -37.5,-10.2 -41.4,29.7 0,0 1.2,28.2 31.7,27.5 l 0,-10 c 0,0 -22.2,1 -20.7,-21.9 l 39.2,-0.3 z"
             inkscape:connector-curvature="0"
             style="fill:#ffffff" /></g><g
           id="g15"><path
             id="path17"
             d="m 499.8,273.2 12.4,-18 c 0,0 0.6,-8.9 -10.1,-8.2 0,0 -1.4,-7.8 -11.3,-6.8 0,0 -6.3,-6.7 -13,-2.2 0,0 -4.7,-6.3 -11.9,-1.4 0,0 -7.9,-5.5 -13.4,1.4 0,0 -9.9,-3 -11.4,2.7 0,0 -9.9,-0.7 -12.6,5.7 0,0 -9.1,-0.7 -10.3,7.1 l -2.5,1.8 c 0,0 -5.4,-0.8 -7.5,8.3 l 31.9,25.7 c 0,0 5.2,-13.9 36.7,-12.9 -0.1,0.1 6.1,-2.7 23,-3.2 z"
             inkscape:connector-curvature="0"
             style="fill:#ffffff" /></g><g
           id="g19"><path
             id="path21"
             d="m 488.8,377.4 c 0,0 -0.9,-2.7 -2,-4.5 -2.6,-4.1 -4.5,-5.7 -4.5,-5.7 25.4,-8.6 44.8,-32.7 44.8,-58.4 0,-15.8 -5.7,-30.6 -16.6,-42.1 l 6.6,-9 c 12.9,13.6 21.7,32.3 21.7,51.1 -0.1,30.6 -19.9,58.4 -50,68.6 z"
             inkscape:connector-curvature="0"
             style="fill:#ffffff" /></g><g
           id="g23"><path
             id="path25"
             d="m 420.5,366.2 c -17.7,-14 -27.8,-34.9 -27.8,-57.4 0,-14.9 4.5,-29.2 12.9,-41.4 l 9.6,6.6 c -7.1,10.3 -10.8,22.3 -10.8,34.8 0,18.9 8.5,36.5 23.4,48.2 l -7.3,9.2 z"
             inkscape:connector-curvature="0"
             style="fill:#ffffff" /></g></g></g><g
       id="text27"
       style="font-size:31.61870003px;font-family:Lato-Light;fill:#ffffff"
       transform="matrix(1.0365,0,0,1,593.3735,346.8943)"><path
         id="path4164"
         style="font-size:31.61870003px;font-family:Lato-Light;fill:#ffffff"
         d="m 20.363801,-21.135742 0,1.775464 q -1.574759,-1.43581 -3.350223,-2.130557 -1.790903,-0.710186 -3.797949,-0.710186 -4.3537473,0 -6.6541312,2.74811 -2.3158227,2.74811 -2.3158227,7.950991 0,5.2028821 2.3158227,7.9664306 2.3003839,2.76354848 6.6541312,2.76354848 2.007046,0 3.797949,-0.71018568 1.775464,-0.7256244 3.350223,-2.1614345 l 0,1.868097 q -1.636514,1.11159491 -3.473734,1.66739237 -1.82178,0.55579746 -3.859704,0.55579746 -4.8477893,0 -7.6267766,-3.19583543 -2.7789873,-3.2112742 -2.7789873,-8.7538103 0,-5.557974 2.7789873,-8.75381 2.7789873,-3.211274 7.6267766,-3.211274 2.068801,0 3.890582,0.586675 1.837219,0.571236 3.442856,1.744587 z"
         inkscape:connector-curvature="0" /><path
         id="path4166"
         style="font-size:31.61870003px;font-family:Lato-Light;fill:#ffffff"
         d="m 40.573214,-19.375717 q -2.22319,-2.887059 -6.005701,-2.887059 -3.78251,0 -6.021139,2.887059 -2.22319,2.887059 -2.22319,7.873797 0,4.955861 2.22319,7.84292 2.238629,2.88705908 6.021139,2.88705908 3.782511,0 6.005701,-2.88705908 2.207751,-2.887059 2.207751,-7.84292 0,-4.986738 -2.207751,-7.873797 z m -6.005701,-4.091287 q 4.477258,0 7.163612,3.242152 2.686355,3.257591 2.686355,8.722932 0,5.4499032 -2.686355,8.6920551 -2.686354,3.25759063 -7.163612,3.25759063 -4.492696,0 -7.194489,-3.24215183 -2.686354,-3.2421519 -2.686354,-8.7074939 0,-5.465341 2.686354,-8.722932 2.701793,-3.242152 7.194489,-3.242152 z"
         inkscape:connector-curvature="0" /><path
         id="path4168"
         style="font-size:31.61870003px;font-family:Lato-Light;fill:#ffffff"
         d="m 50.824589,-23.050156 2.284945,0 11.177704,21.0739872 0,-21.0739872 1.543882,0 0,23.050156 -2.192312,0 -11.23946,-21.212936 0,21.212936 -1.574759,0 0,-23.050156 z"
         inkscape:connector-curvature="0" /><path
         id="path4170"
         style="font-size:31.61870003px;font-family:Lato-Light;fill:#ffffff"
         d="m 87.383712,-21.892244 0,1.451248 q -1.513004,-0.756502 -3.350223,-1.343177 -1.204228,-0.38597 -3.041448,-0.416848 -2.717232,-0.04632 -4.415502,1.204228 -1.543881,1.142473 -1.543881,3.92146 0,1.713709 1.17335,2.717232 1.250544,1.065278 3.767071,1.713709 l 1.83722,0.478603 q 2.470211,0.64843 3.813388,1.543882 2.516527,1.7137088 2.516527,4.3074303 0,3.7516329 -2.207751,5.2028818 -2.408455,1.55932063 -4.940422,1.55932063 -2.640037,0 -4.724278,-0.72562446 -1.3123,-0.52491983 -2.74811,-1.45124897 l 0,-1.5130042 q 2.161435,1.281422 3.026009,1.6365148 1.929852,0.78737973 3.581806,0.78737973 2.825303,0 4.6934,-1.25054433 1.760026,-1.1733502 1.760026,-4.1221645 0,-1.7291476 -1.080718,-2.717232 -1.55932,-1.4358098 -4.04497,-2.0379238 l -1.852658,-0.447726 q -2.22319,-0.540359 -3.782511,-1.513004 -2.362139,-1.482127 -2.362139,-4.044971 0,-3.195835 1.929852,-4.909544 1.790903,-1.590198 5.434464,-1.605637 2.145996,0 3.288469,0.370532 2.933375,0.957206 3.273029,1.204228 z"
         inkscape:connector-curvature="0" /><path
         id="path4172"
         style="font-size:31.61870003px;font-family:Lato-Light;fill:#ffffff"
         d="m 94.25398,-23.050156 1.543882,0 0,14.0030084 q 0,4.3846245 1.543882,6.3144767 1.528443,1.91441353 4.955856,1.91441353 3.41198,0 4.94043,-1.91441353 1.54388,-1.9298522 1.54388,-6.3144767 l 0,-14.0030084 1.54388,0 0,14.3889789 q 0,4.508135 -2.03792,6.8085189 -2.02249,2.30038393 -5.99027,2.30038393 -3.983211,0 -6.005696,-2.30038393 -2.037924,-2.3003839 -2.037924,-6.8085189 l 0,-14.3889789 z"
         inkscape:connector-curvature="0" /><path
         id="path4174"
         style="font-size:31.61870003px;font-family:Lato-Light;fill:#ffffff"
         d="m 117.73643,-23.050156 1.54388,0 0,21.7841729 11.22402,0 0,1.2659831 -12.7679,0 0,-23.050156 z"
         inkscape:connector-curvature="0" /><path
         id="path4176"
         style="font-size:31.61870003px;font-family:Lato-Light;fill:#ffffff"
         d="m 127.84885,-23.050156 17.92447,0 0,1.265983 -8.18257,0 0,21.784173 -1.55932,0 0,-21.784173 -8.18258,0 0,-1.265983 z"
         inkscape:connector-curvature="0" /><path
         id="path4178"
         style="font-size:31.61870003px;font-family:Lato-Light;fill:#ffffff"
         d="m 150.31233,-23.050156 1.60564,0 0,23.050156 -1.60564,0 0,-23.050156 z"
         inkscape:connector-curvature="0" /><path
         id="path4180"
         style="font-size:31.61870003px;font-family:Lato-Light;fill:#ffffff"
         d="m 159.63737,-23.050156 2.28495,0 11.1777,21.0739872 0,-21.0739872 1.54389,0 0,23.050156 -2.19232,0 -11.23946,-21.212936 0,21.212936 -1.57476,0 0,-23.050156 z"
         inkscape:connector-curvature="0" /><path
         id="path4182"
         style="font-size:31.61870003px;font-family:Lato-Light;fill:#ffffff"
         d="m 199.06811,-1.9607299 0,-8.0745021 -5.88219,0 0,-1.265983 7.41064,0 0,10.0815483 Q 198.9446,-0.40140928 196.96844,0 q -1.97617,0.4168481 -4.23024,0.44772573 -5.00218,0 -7.81204,-3.16495773 -2.82531,-3.149519 -2.82531,-8.784688 0,-5.650607 2.82531,-8.815565 2.80986,-3.149519 7.81204,-3.149519 2.0688,0 3.90602,0.416848 1.85266,0.447726 3.39654,1.3123 l 0,1.497565 q -1.55932,-0.864574 -3.33478,-1.312299 -1.76003,-0.432287 -3.70532,-0.432287 -4.64709,0 -6.97835,2.640038 -2.33126,2.624599 -2.33126,7.842919 0,5.295515 2.33126,7.9664306 2.33126,2.68635439 6.97835,2.68635439 1.89897,0 3.39654,-0.26245989 1.48213,-0.2778988 2.67091,-0.849135 z"
         inkscape:connector-curvature="0" /></g><g
       id="text29"
       style="font-size:49.65639877px;font-family:ProximaNovaBold;fill:#ffffff"
       transform="translate(561.1421,309.3513)"><path
         id="path4185"
         style="font-size:49.65639877px;font-family:ProximaNovaBold;fill:#ffffff"
         d="m 3.2773223,0 7.0512087,0 0,-11.818223 8.441588,0 c 1.78763,0 3.326978,-0.248282 4.717358,-0.844159 1.390379,-0.54622 2.532476,-1.291066 3.475948,-2.284194 0.943471,-0.993128 1.688317,-2.085569 2.184881,-3.376635 0.496564,-1.291067 0.744846,-2.631789 0.744846,-4.121481 0,-1.440036 -0.248282,-2.830415 -0.744846,-4.121481 -0.496564,-1.291067 -1.191753,-2.383507 -2.135225,-3.376635 -0.943472,-0.993128 -2.085569,-1.737974 -3.475948,-2.333851 -1.390379,-0.546221 -2.979384,-0.844159 -4.767014,-0.844159 l -15.4927967,0 0,33.120818 z m 14.4996687,-18.025273 -7.44846,0 0,-8.888495 7.44846,0 c 1.390379,0 2.532476,0.397251 3.475948,1.191753 0.943471,0.794503 1.440035,1.886944 1.440035,3.277323 0,1.390379 -0.496564,2.48282 -1.440035,3.277322 -0.943472,0.794502 -2.085569,1.142097 -3.475948,1.142097 z"
         inkscape:connector-curvature="0" /><path
         id="path4187"
         style="font-size:49.65639877px;font-family:ProximaNovaBold;fill:#ffffff"
         d="m 53.033034,0 8.14365,0 -7.498116,-12.612725 c 0.893815,-0.198626 1.737974,-0.546221 2.631789,-1.042785 0.893815,-0.496564 1.638661,-1.191753 2.33385,-1.986256 0.69519,-0.794502 1.24141,-1.78763 1.688318,-2.929727 0.397251,-1.092441 0.645533,-2.383507 0.645533,-3.873199 0,-1.489692 -0.297938,-2.929728 -0.794502,-4.220794 -0.496564,-1.291067 -1.24141,-2.433164 -2.234538,-3.426292 -0.993128,-0.943471 -2.135225,-1.688317 -3.525604,-2.234538 -1.39038,-0.496564 -2.929728,-0.794502 -4.618046,-0.794502 l -15.492796,0 0,33.120818 7.051209,0 0,-11.768567 5.164265,0 L 53.033034,0 Z m -4.220794,-17.975616 -7.448459,0 0,-8.938152 7.448459,0 c 1.39038,0 2.532477,0.397251 3.475948,1.191753 0.943472,0.794503 1.440036,1.837287 1.440036,3.227666 0,1.440036 -0.496564,2.532477 -1.440036,3.326979 -0.943471,0.794502 -2.085568,1.191754 -3.475948,1.191754 z"
         inkscape:connector-curvature="0" /><path
         id="path4189"
         style="font-size:49.65639877px;font-family:ProximaNovaBold;fill:#ffffff"
         d="m 66.220689,0 23.437821,0 0,-6.2070498 -16.386612,0 0,-7.5477722 16.039017,0 0,-6.20705 -16.039017,0 0,-6.951896 16.386612,0 0,-6.20705 -23.437821,0 0,33.120818 z"
         inkscape:connector-curvature="0" /><path
         id="path4191"
         style="font-size:49.65639877px;font-family:ProximaNovaBold;fill:#ffffff"
         d="m 102.86633,0 7.10087,0 0,-26.913768 9.63334,0 0,-6.20705 -26.417205,0 0,6.20705 9.682995,0 0,26.913768 z"
         inkscape:connector-curvature="0" /><path
         id="path4193"
         style="font-size:49.65639877px;font-family:ProximaNovaBold;fill:#ffffff"
         d="m 138.69808,0.59587679 c 2.48282,0 4.76701,-0.39725119 6.90224,-1.24140997 2.08557,-0.84415882 3.92286,-2.03591232 5.4622,-3.57526072 1.53935,-1.489692 2.73111,-3.3269787 3.62492,-5.4125475 0.84416,-2.0855686 1.29107,-4.4194196 1.29107,-6.9022396 0,-2.48282 -0.44691,-4.767014 -1.29107,-6.852583 -0.89381,-2.085569 -2.08557,-3.922855 -3.62492,-5.462204 -1.53934,-1.489692 -3.37663,-2.681445 -5.4622,-3.525604 -2.13523,-0.844159 -4.41942,-1.291066 -6.90224,-1.291066 -2.53248,0 -4.86633,0.446907 -6.9519,1.291066 -2.13522,0.844159 -3.97251,2.035912 -5.51186,3.525604 -1.53934,1.539349 -2.7311,3.376635 -3.57526,5.462204 -0.89381,2.085569 -1.29106,4.369763 -1.29106,6.852583 0,2.48282 0.39725,4.816671 1.29106,6.9022396 0.84416,2.0855688 2.03592,3.9228555 3.57526,5.4125475 1.53935,1.5393484 3.37664,2.7311019 5.51186,3.57526072 2.08557,0.84415878 4.41942,1.24140997 6.9519,1.24140997 z m 0,-6.25670629 c -1.589,0 -2.97938,-0.248282 -4.22079,-0.8441587 -1.24141,-0.5462204 -2.2842,-1.2910664 -3.12836,-2.2841944 -0.89381,-0.9434716 -1.53934,-2.0855684 -2.03591,-3.4262914 -0.49656,-1.291066 -0.69519,-2.731102 -0.69519,-4.320107 0,-1.539348 0.19863,-2.979384 0.69519,-4.320106 0.49657,-1.291067 1.1421,-2.433164 2.03591,-3.426292 0.84416,-0.993128 1.88695,-1.737974 3.12836,-2.284194 1.24141,-0.546221 2.63179,-0.844159 4.22079,-0.844159 1.48969,0 2.88007,0.297938 4.12148,0.844159 1.24141,0.54622 2.2842,1.291066 3.17801,2.284194 0.84416,0.993128 1.48969,2.135225 1.98626,3.426292 0.49656,1.340722 0.74484,2.780758 0.74484,4.320106 0,1.589005 -0.24828,3.029041 -0.74484,4.320107 -0.49657,1.340723 -1.1421,2.4828198 -1.98626,3.4262914 -0.89381,0.993128 -1.9366,1.737974 -3.17801,2.2841944 -1.24141,0.5958767 -2.63179,0.8441587 -4.12148,0.8441587 z"
         inkscape:connector-curvature="0" /><path
         id="path4195"
         style="font-size:49.65639877px;font-family:ProximaNovaBold;fill:#ffffff"
         d="m 179.69565,0 8.14364,0 -7.49811,-12.612725 c 0.89381,-0.198626 1.73797,-0.546221 2.63179,-1.042785 0.89381,-0.496564 1.63866,-1.191753 2.33385,-1.986256 0.69519,-0.794502 1.24141,-1.78763 1.68832,-2.929727 0.39725,-1.092441 0.64553,-2.383507 0.64553,-3.873199 0,-1.489692 -0.29794,-2.929728 -0.7945,-4.220794 -0.49657,-1.291067 -1.24141,-2.433164 -2.23454,-3.426292 -0.99313,-0.943471 -2.13523,-1.688317 -3.52561,-2.234538 -1.39037,-0.496564 -2.92972,-0.794502 -4.61804,-0.794502 l -15.4928,0 0,33.120818 7.05121,0 0,-11.768567 5.16427,0 L 179.69565,0 Z m -4.2208,-17.975616 -7.44846,0 0,-8.938152 7.44846,0 c 1.39038,0 2.53248,0.397251 3.47595,1.191753 0.94347,0.794503 1.44003,1.837287 1.44003,3.227666 0,1.440036 -0.49656,2.532477 -1.44003,3.326979 -0.94347,0.794502 -2.08557,1.191754 -3.47595,1.191754 z"
         inkscape:connector-curvature="0" /><path
         id="path4197"
         style="font-size:49.65639877px;font-family:ProximaNovaBold;fill:#ffffff"
         d="m 192.88329,0 7.05121,0 0,-33.120818 -7.05121,0 0,33.120818 z"
         inkscape:connector-curvature="0" /><path
         id="path4199"
         style="font-size:49.65639877px;font-family:ProximaNovaBold;fill:#ffffff"
         d="m 229.35282,0 7.99468,0 -12.76169,-33.120818 -8.83884,0 L 202.98527,0 l 7.99468,0 2.08557,-5.6111731 14.20173,0 L 229.35282,0 Z m -9.18643,-26.069609 5.16426,14.251386 -10.32853,0 5.16427,-14.251386 z"
         inkscape:connector-curvature="0" /><path
         id="path4201"
         style="font-size:49.65639877px;font-family:ProximaNovaBold;fill:#ffffff"
         d="m 263.24797,0 6.80293,0 0,-33.120818 -7.05121,0 0,20.806031 -15.34383,-20.806031 -7.24983,0 0,33.120818 7.05121,0 0,-21.600533 L 263.24797,0 Z"
         inkscape:connector-curvature="0" /></g></g></svg>