<?xml version="1.0" encoding="UTF-8" standalone="no"?>
<!-- Generator: Adobe Illustrator 18.0.0, SVG Export Plug-In . SVG Version: 6.00 Build 0)  -->

<svg
   xmlns:dc="http://purl.org/dc/elements/1.1/"
   xmlns:cc="http://creativecommons.org/ns#"
   xmlns:rdf="http://www.w3.org/1999/02/22-rdf-syntax-ns#"
   xmlns:svg="http://www.w3.org/2000/svg"
   xmlns="http://www.w3.org/2000/svg"
   xmlns:sodipodi="http://sodipodi.sourceforge.net/DTD/sodipodi-0.dtd"
   xmlns:inkscape="http://www.inkscape.org/namespaces/inkscape"
   version="1.1"
   id="Capa_1"
   x="0px"
   y="0px"
   viewBox="0 0 14.563222 14.625"
   enable-background="new 0 0 960 560"
   xml:space="preserve"
   inkscape:version="0.91 r13725"
   sodipodi:docname="close.svg"
   width="14.563222"
   height="14.625"><metadata
     id="metadata13"><rdf:RDF><cc:Work
         rdf:about=""><dc:format>image/svg+xml</dc:format><dc:type
           rdf:resource="http://purl.org/dc/dcmitype/StillImage" /><dc:title></dc:title></cc:Work></rdf:RDF></metadata><defs
     id="defs11" /><sodipodi:namedview
     pagecolor="#ffffff"
     bordercolor="#666666"
     borderopacity="1"
     objecttolerance="10"
     gridtolerance="10"
     guidetolerance="10"
     inkscape:pageopacity="0"
     inkscape:pageshadow="2"
     inkscape:window-width="1280"
     inkscape:window-height="972"
     id="namedview9"
     showgrid="false"
     fit-margin-top="0"
     fit-margin-left="0"
     fit-margin-right="0"
     fit-margin-bottom="0"
     inkscape:zoom="2.1331055"
     inkscape:cx="-17.475888"
     inkscape:cy="-18.765251"
     inkscape:window-x="-8"
     inkscape:window-y="-8"
     inkscape:window-maximized="1"
     inkscape:current-layer="Capa_1" /><g
     id="g3"
     transform="translate(-473.075,-272.875)"><g
       id="g5"><path
         d="m 487.1,275.8 -4.4,4.4 4.4,4.4 c 0.7,0.7 0.7,1.7 0,2.4 -0.3,0.3 -0.8,0.5 -1.2,0.5 -0.4,0 -0.9,-0.2 -1.2,-0.5 l -4.4,-4.4 -4.3,4.4 c -0.3,0.3 -0.8,0.5 -1.2,0.5 -0.4,0 -0.9,-0.2 -1.2,-0.5 -0.7,-0.7 -0.7,-1.7 0,-2.4 l 4.4,-4.4 -4.4,-4.4 c -0.7,-0.7 -0.7,-1.7 0,-2.4 0.7,-0.7 1.7,-0.7 2.4,0 l 4.4,4.4 4.4,-4.4 c 0.7,-0.7 1.7,-0.7 2.4,0 0.6,0.7 0.6,1.8 -0.1,2.4 z"
         id="path7"
         inkscape:connector-curvature="0"
         style="fill:#003072" /></g></g></svg>