<?xml version="1.0" encoding="UTF-8" standalone="no"?>
<!-- Created with Inkscape (http://www.inkscape.org/) -->

<svg
   xmlns:dc="http://purl.org/dc/elements/1.1/"
   xmlns:cc="http://creativecommons.org/ns#"
   xmlns:rdf="http://www.w3.org/1999/02/22-rdf-syntax-ns#"
   xmlns:svg="http://www.w3.org/2000/svg"
   xmlns="http://www.w3.org/2000/svg"
   xmlns:sodipodi="http://sodipodi.sourceforge.net/DTD/sodipodi-0.dtd"
   xmlns:inkscape="http://www.inkscape.org/namespaces/inkscape"
   width="91.803413mm"
   height="30.762981mm"
   viewBox="0 0 325.28769 109.00269"
   id="svg6493"
   version="1.1"
   inkscape:version="0.91 r13725"
   sodipodi:docname="logo-pretorian.svg">
  <defs
     id="defs6495" />
  <sodipodi:namedview
     id="base"
     pagecolor="#ffffff"
     bordercolor="#666666"
     borderopacity="1.0"
     inkscape:pageopacity="0.0"
     inkscape:pageshadow="2"
     inkscape:zoom="0.35"
     inkscape:cx="1136.2153"
     inkscape:cy="-31.212937"
     inkscape:document-units="px"
     inkscape:current-layer="layer1"
     showgrid="false"
     fit-margin-top="0"
     fit-margin-left="0"
     fit-margin-right="0"
     fit-margin-bottom="0"
     inkscape:window-width="1280"
     inkscape:window-height="972"
     inkscape:window-x="-8"
     inkscape:window-y="-8"
     inkscape:window-maximized="1" />
  <metadata
     id="metadata6498">
    <rdf:RDF>
      <cc:Work
         rdf:about="">
        <dc:format>image/svg+xml</dc:format>
        <dc:type
           rdf:resource="http://purl.org/dc/dcmitype/StillImage" />
        <dc:title></dc:title>
      </cc:Work>
    </rdf:RDF>
  </metadata>
  <g
     inkscape:label="Capa 1"
     inkscape:groupmode="layer"
     id="layer1"
     transform="translate(811.21528,-392.14658)">
    <g
       transform="translate(-1134.3279,625.69148)"
       id="g6428">
      <g
         transform="translate(-36.587382,-262.20957)"
         id="g623">
        <g
           id="g625">
          <path
             style="fill:#0b3370"
             inkscape:connector-curvature="0"
             id="path627"
             d="m 427.2,134.7 c -2.5,-4.8 -9.1,-10.8 -21.1,-19.4 0,0 8.9,0.9 10.9,3.6 l 0,-8.1 6.6,-0.4 c 0,0 5,-6 3.4,-25 l -23.7,0 c 0,0 -0.4,9.6 13.4,9.6 l 2.4,12.6 c 0,0 -13.1,4.3 -23.1,-6.9 l 0,14.6 c 0,0 -6.4,4.7 -11,11.5 0,0 -2.7,2.4 0.6,4.3 0,0 8.1,8.4 40.4,6.2 0,0.1 1.9,-1.2 1.2,-2.6 z" />
        </g>
        <g
           id="g629">
          <path
             style="fill:#0b3370"
             inkscape:connector-curvature="0"
             id="path631"
             d="m 429.2,82.4 c 0,0 4.9,-5.6 7.9,-21 0,0 -9,-0.5 -14.5,2.3 0,0 -28.1,-7.6 -31,22 0,0 1.2,21 23.2,20.4 l 0,-7.4 c 0,0 -16.2,0.7 -15.1,-16.3 l 29.5,0 z" />
        </g>
        <g
           id="g633">
          <path
             style="fill:#0b3370"
             inkscape:connector-curvature="0"
             id="path635"
             d="m 439.2,57.5 9.2,-13.4 c 0,0 0.4,-6.6 -7.5,-6.1 0,0 -1,-5.8 -8.4,-5.1 0,0 -4.7,-5 -9.7,-1.6 0,0 -3.5,-4.7 -8.8,-1.1 0,0 -5.9,-4.1 -9.9,1.1 0,0 -7.4,-2.2 -8.5,2 0,0 -7.4,-0.6 -9.4,4.2 0,0 -6.7,-0.5 -7.7,5.2 l -1.8,1.3 c 0,0 -4,-0.6 -5.6,6.2 l 23.7,19.1 c 0,0 3.9,-10.3 27.2,-9.5 0.1,0.1 4.7,-1.9 17.2,-2.3 z" />
        </g>
        <g
           id="g637">
          <path
             style="fill:#0b3370"
             inkscape:connector-curvature="0"
             id="path639"
             d="m 431,134.7 c 0,0 -0.7,-2 -1.5,-3.3 -1.9,-3 -3.3,-4.2 -3.3,-4.2 18.9,-6.4 33.3,-24.3 33.3,-43.3 0,-11.7 -4.3,-22.7 -12.3,-31.2 L 452,46 c 9.6,10.1 16.1,24 16.1,37.9 0,22.7 -14.8,43.3 -37.1,50.8 z" />
        </g>
        <g
           id="g641">
          <path
             style="fill:#0b3370"
             inkscape:connector-curvature="0"
             id="path643"
             d="M 380.3,126.4 C 367.2,116 359.7,100.5 359.7,83.8 c 0,-11 3.3,-21.7 9.5,-30.7 l 7.1,4.9 c -5.2,7.6 -8,16.5 -8,25.8 0,14 6.3,27.1 17.3,35.8 l -5.3,6.8 z" />
        </g>
      </g>
      <g
         id="text645"
         style="font-size:36.83420181px;font-family:ProximaNovaBold;fill:#424242">
        <path
           inkscape:connector-curvature="0"
           id="path6418"
           style="font-size:36.83420181px;font-family:ProximaNovaBold;fill:#424242"
           d="m 462.44685,-179.61266 c 2.21005,0 4.1991,-0.40518 5.93031,-1.25236 1.73121,-0.81036 3.24141,-1.95222 4.49377,-3.35192 l 0,-9.42955 -11.71328,0 0,4.56744 6.48282,0 0,2.94673 c -0.51568,0.47885 -1.21553,0.92086 -2.13638,1.2892 -0.95769,0.40518 -1.95221,0.58935 -3.05724,0.58935 -1.14186,0 -2.17322,-0.18417 -3.13091,-0.58935 -0.95769,-0.40517 -1.76804,-0.95769 -2.43105,-1.69437 -0.69985,-0.69985 -1.25237,-1.54704 -1.62071,-2.54156 -0.36834,-0.99453 -0.55251,-2.06272 -0.55251,-3.24141 0,-1.14186 0.18417,-2.21005 0.55251,-3.20458 0.36834,-0.95769 0.92086,-1.80487 1.62071,-2.54156 0.66301,-0.73668 1.47336,-1.28919 2.43105,-1.69437 0.95769,-0.40518 1.98905,-0.62618 3.13091,-0.62618 1.25236,0 2.39422,0.33151 3.42558,0.95769 1.03136,0.66301 1.80488,1.3997 2.39423,2.24688 l 4.3096,-2.35739 c -0.47885,-0.73668 -1.03136,-1.43653 -1.65754,-2.09954 -0.66302,-0.66302 -1.3997,-1.21553 -2.21005,-1.73121 -0.81036,-0.51568 -1.76805,-0.92086 -2.7994,-1.21553 -1.03136,-0.29467 -2.21006,-0.44201 -3.46242,-0.44201 -1.84171,0 -3.53608,0.29467 -5.11995,0.88402 -1.58387,0.58935 -2.98357,1.43653 -4.16227,2.54156 -1.17869,1.10503 -2.13638,2.46789 -2.7994,4.01493 -0.69985,1.58387 -1.03135,3.35191 -1.03135,5.26729 0,1.95221 0.3315,3.72025 1.03135,5.26729 0.66302,1.54704 1.62071,2.87307 2.7994,3.97809 1.1787,1.10503 2.5784,1.98905 4.16227,2.5784 1.58387,0.58934 3.27824,0.88402 5.11995,0.88402 z" />
        <path
           inkscape:connector-curvature="0"
           id="path6420"
           style="font-size:36.83420181px;font-family:ProximaNovaBold;fill:#424242"
           d="m 490.94559,-180.05467 6.04081,0 -5.56197,-9.35589 c 0.66302,-0.14734 1.2892,-0.40518 1.95222,-0.77352 0.66301,-0.36834 1.21552,-0.88402 1.7312,-1.47337 0.51568,-0.58934 0.92086,-1.32603 1.25237,-2.17321 0.29467,-0.81036 0.47884,-1.76805 0.47884,-2.87307 0,-1.10503 -0.22101,-2.17322 -0.58935,-3.13091 -0.36834,-0.95769 -0.92085,-1.80487 -1.65754,-2.54156 -0.73668,-0.69985 -1.58387,-1.25236 -2.61522,-1.65754 -1.03136,-0.36834 -2.17322,-0.58934 -3.42559,-0.58934 l -11.49227,0 0,24.56841 5.23046,0 0,-8.72971 3.83076,0 4.82528,8.72971 z m -3.13091,-13.33398 -5.52513,0 0,-6.63016 5.52513,0 c 1.03136,0 1.87855,0.29467 2.57839,0.88402 0.69985,0.58935 1.0682,1.36287 1.0682,2.39422 0,1.0682 -0.36835,1.87855 -1.0682,2.4679 -0.69984,0.58934 -1.54703,0.88402 -2.57839,0.88402 z" />
        <path
           inkscape:connector-curvature="0"
           id="path6422"
           style="font-size:36.83420181px;font-family:ProximaNovaBold;fill:#424242"
           d="m 511.81504,-179.61266 c 1.84171,0 3.46242,-0.22101 4.86212,-0.73669 1.3997,-0.51567 2.54156,-1.21552 3.46241,-2.09955 0.92086,-0.88402 1.62071,-1.98904 2.06272,-3.24141 0.44201,-1.25236 0.69985,-2.65206 0.69985,-4.19909 l 0,-14.73368 -5.34096,0 0,14.58634 c 0,1.73121 -0.47885,3.13091 -1.43654,4.1991 -0.95769,1.06819 -2.39422,1.58387 -4.3096,1.58387 -1.91538,0 -3.38874,-0.51568 -4.34643,-1.58387 -0.95769,-1.06819 -1.43654,-2.46789 -1.43654,-4.1991 l 0,-14.58634 -5.30412,0 0,14.73368 c 0,1.54703 0.221,2.94673 0.66301,4.19909 0.44201,1.25237 1.14186,2.35739 2.06272,3.24141 0.92085,0.88403 2.06271,1.58388 3.46241,2.09955 1.3997,0.51568 3.02041,0.73669 4.89895,0.73669 z" />
        <path
           inkscape:connector-curvature="0"
           id="path6424"
           style="font-size:36.83420181px;font-family:ProximaNovaBold;fill:#424242"
           d="m 527.77807,-180.05467 5.23045,0 0,-8.76654 6.26182,0 c 1.32603,0 2.46789,-0.18417 3.49925,-0.62618 1.03135,-0.40518 1.87854,-0.95769 2.57839,-1.69438 0.69985,-0.73668 1.25236,-1.54703 1.6207,-2.50472 0.36835,-0.95769 0.55252,-1.95222 0.55252,-3.05724 0,-1.06819 -0.18417,-2.09955 -0.55252,-3.05724 -0.36834,-0.95769 -0.88402,-1.76804 -1.58387,-2.50473 -0.69985,-0.73668 -1.54703,-1.28919 -2.57839,-1.7312 -1.03136,-0.40518 -2.21005,-0.62618 -3.53608,-0.62618 l -11.49227,0 0,24.56841 z m 10.75558,-13.37082 -5.52513,0 0,-6.59332 5.52513,0 c 1.03136,0 1.87855,0.29467 2.5784,0.88402 0.69985,0.58935 1.06819,1.3997 1.06819,2.43106 0,1.03136 -0.36834,1.84171 -1.06819,2.43106 -0.69985,0.58934 -1.54704,0.84718 -2.5784,0.84718 z" />
        <path
           inkscape:connector-curvature="0"
           id="path6426"
           style="font-size:36.83420181px;font-family:ProximaNovaBold;fill:#424242"
           d="m 562.47588,-179.61266 c 1.84171,0 3.53608,-0.29468 5.11995,-0.92086 1.54704,-0.62618 2.9099,-1.5102 4.05176,-2.65206 1.14186,-1.10503 2.02588,-2.46789 2.6889,-4.01493 0.62618,-1.54703 0.95769,-3.27824 0.95769,-5.11995 0,-1.84171 -0.33151,-3.53608 -0.95769,-5.08312 -0.66302,-1.54704 -1.54704,-2.9099 -2.6889,-4.05176 -1.14186,-1.10503 -2.50472,-1.98905 -4.05176,-2.61523 -1.58387,-0.62618 -3.27824,-0.95769 -5.11995,-0.95769 -1.87855,0 -3.60975,0.33151 -5.15679,0.95769 -1.58387,0.62618 -2.94674,1.5102 -4.0886,2.61523 -1.14186,1.14186 -2.02588,2.50472 -2.65206,4.05176 -0.66302,1.54704 -0.95769,3.24141 -0.95769,5.08312 0,1.84171 0.29467,3.57292 0.95769,5.11995 0.62618,1.54704 1.5102,2.9099 2.65206,4.01493 1.14186,1.14186 2.50473,2.02588 4.0886,2.65206 1.54704,0.62618 3.27824,0.92086 5.15679,0.92086 z m 0,-4.64111 c -1.1787,0 -2.21006,-0.18417 -3.13091,-0.62618 -0.92086,-0.40518 -1.69437,-0.95769 -2.32055,-1.69438 -0.66302,-0.69985 -1.14187,-1.54703 -1.51021,-2.54156 -0.36834,-0.95769 -0.51568,-2.02588 -0.51568,-3.20457 0,-1.14186 0.14734,-2.21005 0.51568,-3.20458 0.36834,-0.95769 0.84719,-1.80487 1.51021,-2.54156 0.62618,-0.73668 1.39969,-1.28919 2.32055,-1.69437 0.92085,-0.40518 1.95221,-0.62618 3.13091,-0.62618 1.10502,0 2.13638,0.221 3.05724,0.62618 0.92085,0.40518 1.69437,0.95769 2.35738,1.69437 0.62619,0.73669 1.10503,1.58387 1.47337,2.54156 0.36834,0.99453 0.55252,2.06272 0.55252,3.20458 0,1.17869 -0.18418,2.24688 -0.55252,3.20457 -0.36834,0.99453 -0.84718,1.84171 -1.47337,2.54156 -0.66301,0.73669 -1.43653,1.2892 -2.35738,1.69438 -0.92086,0.44201 -1.95222,0.62618 -3.05724,0.62618 z" />
      </g>
      <g
         id="text647"
         style="font-size:36.83420181px;font-family:ProximaNovaBold;fill:#424242">
        <path
           inkscape:connector-curvature="0"
           id="path6399"
           style="font-size:36.83420181px;font-family:ProximaNovaBold;fill:#424242"
           d="m 450.51257,-149.54488 5.23046,0 0,-8.76654 6.26181,0 c 1.32603,0 2.46789,-0.18417 3.49925,-0.62618 1.03136,-0.40517 1.87854,-0.95769 2.57839,-1.69437 0.69985,-0.73668 1.25237,-1.54704 1.62071,-2.50473 0.36834,-0.95769 0.55251,-1.95221 0.55251,-3.05724 0,-1.06819 -0.18417,-2.09954 -0.55251,-3.05723 -0.36834,-0.95769 -0.88402,-1.76805 -1.58387,-2.50473 -0.69985,-0.73668 -1.54704,-1.2892 -2.5784,-1.73121 -1.03135,-0.40517 -2.21005,-0.62618 -3.53608,-0.62618 l -11.49227,0 0,24.56841 z m 10.75559,-13.37081 -5.52513,0 0,-6.59332 5.52513,0 c 1.03135,0 1.87854,0.29467 2.57839,0.88402 0.69985,0.58934 1.06819,1.3997 1.06819,2.43105 0,1.03136 -0.36834,1.84171 -1.06819,2.43106 -0.69985,0.58935 -1.54704,0.84719 -2.57839,0.84719 z" />
        <path
           inkscape:connector-curvature="0"
           id="path6401"
           style="font-size:36.83420181px;font-family:ProximaNovaBold;fill:#424242"
           d="m 487.42044,-149.54488 6.04081,0 -5.56197,-9.35588 c 0.66302,-0.14734 1.2892,-0.40518 1.95222,-0.77352 0.66301,-0.36834 1.21553,-0.88402 1.7312,-1.47337 0.51568,-0.58935 0.92086,-1.32603 1.25237,-2.17322 0.29467,-0.81035 0.47884,-1.76804 0.47884,-2.87307 0,-1.10502 -0.221,-2.17321 -0.58935,-3.1309 -0.36834,-0.95769 -0.92085,-1.80488 -1.65753,-2.54156 -0.73669,-0.69985 -1.58388,-1.25237 -2.61523,-1.65754 -1.03136,-0.36834 -2.17322,-0.58935 -3.42558,-0.58935 l -11.49227,0 0,24.56841 5.23045,0 0,-8.7297 3.83076,0 4.82528,8.7297 z m -3.13091,-13.33398 -5.52513,0 0,-6.63015 5.52513,0 c 1.03136,0 1.87855,0.29467 2.5784,0.88402 0.69985,0.58934 1.06819,1.36286 1.06819,2.39422 0,1.06819 -0.36834,1.87854 -1.06819,2.46789 -0.69985,0.58935 -1.54704,0.88402 -2.5784,0.88402 z" />
        <path
           inkscape:connector-curvature="0"
           id="path6403"
           style="font-size:36.83420181px;font-family:ProximaNovaBold;fill:#424242"
           d="m 497.2028,-149.54488 17.38574,0 0,-4.60427 -12.15529,0 0,-5.5988 11.89745,0 0,-4.60428 -11.89745,0 0,-5.15678 12.15529,0 0,-4.60428 -17.38574,0 0,24.56841 z" />
        <path
           inkscape:connector-curvature="0"
           id="path6405"
           style="font-size:36.83420181px;font-family:ProximaNovaBold;fill:#424242"
           d="m 524.38587,-149.54488 5.26729,0 0,-19.96413 7.14583,0 0,-4.60428 -19.59579,0 0,4.60428 7.18267,0 0,19.96413 z" />
        <path
           inkscape:connector-curvature="0"
           id="path6407"
           style="font-size:36.83420181px;font-family:ProximaNovaBold;fill:#424242"
           d="m 550.9652,-149.10287 c 1.84171,0 3.53608,-0.29467 5.11995,-0.92085 1.54704,-0.62618 2.9099,-1.5102 4.05176,-2.65206 1.14186,-1.10503 2.02588,-2.46789 2.6889,-4.01493 0.62618,-1.54704 0.95769,-3.27825 0.95769,-5.11996 0,-1.84171 -0.33151,-3.53608 -0.95769,-5.08312 -0.66302,-1.54703 -1.54704,-2.9099 -2.6889,-4.05176 -1.14186,-1.10502 -2.50472,-1.98904 -4.05176,-2.61523 -1.58387,-0.62618 -3.27824,-0.95768 -5.11995,-0.95768 -1.87855,0 -3.60976,0.3315 -5.15679,0.95768 -1.58387,0.62619 -2.94674,1.51021 -4.0886,2.61523 -1.14186,1.14186 -2.02588,2.50473 -2.65206,4.05176 -0.66302,1.54704 -0.95769,3.24141 -0.95769,5.08312 0,1.84171 0.29467,3.57292 0.95769,5.11996 0.62618,1.54704 1.5102,2.9099 2.65206,4.01493 1.14186,1.14186 2.50473,2.02588 4.0886,2.65206 1.54703,0.62618 3.27824,0.92085 5.15679,0.92085 z m 0,-4.64111 c -1.1787,0 -2.21006,-0.18417 -3.13091,-0.62618 -0.92086,-0.40517 -1.69437,-0.95769 -2.32056,-1.69437 -0.66301,-0.69985 -1.14186,-1.54704 -1.5102,-2.54156 -0.36834,-0.95769 -0.51568,-2.02588 -0.51568,-3.20458 0,-1.14186 0.14734,-2.21005 0.51568,-3.20457 0.36834,-0.95769 0.84719,-1.80488 1.5102,-2.54156 0.62619,-0.73668 1.3997,-1.2892 2.32056,-1.69437 0.92085,-0.40518 1.95221,-0.62619 3.13091,-0.62619 1.10502,0 2.13638,0.22101 3.05723,0.62619 0.92086,0.40517 1.69438,0.95769 2.35739,1.69437 0.62618,0.73668 1.10503,1.58387 1.47337,2.54156 0.36834,0.99452 0.55251,2.06271 0.55251,3.20457 0,1.1787 -0.18417,2.24689 -0.55251,3.20458 -0.36834,0.99452 -0.84719,1.84171 -1.47337,2.54156 -0.66301,0.73668 -1.43653,1.2892 -2.35739,1.69437 -0.92085,0.44201 -1.95221,0.62618 -3.05723,0.62618 z" />
        <path
           inkscape:connector-curvature="0"
           id="path6409"
           style="font-size:36.83420181px;font-family:ProximaNovaBold;fill:#424242"
           d="m 581.37644,-149.54488 6.0408,0 -5.56196,-9.35588 c 0.66302,-0.14734 1.2892,-0.40518 1.95221,-0.77352 0.66302,-0.36834 1.21553,-0.88402 1.73121,-1.47337 0.51568,-0.58935 0.92085,-1.32603 1.25236,-2.17322 0.29468,-0.81035 0.47885,-1.76804 0.47885,-2.87307 0,-1.10502 -0.22101,-2.17321 -0.58935,-3.1309 -0.36834,-0.95769 -0.92085,-1.80488 -1.65754,-2.54156 -0.73668,-0.69985 -1.58387,-1.25237 -2.61523,-1.65754 -1.03135,-0.36834 -2.17322,-0.58935 -3.42558,-0.58935 l -11.49227,0 0,24.56841 5.23046,0 0,-8.7297 3.83075,0 4.82529,8.7297 z m -3.13091,-13.33398 -5.52513,0 0,-6.63015 5.52513,0 c 1.03136,0 1.87854,0.29467 2.57839,0.88402 0.69985,0.58934 1.06819,1.36286 1.06819,2.39422 0,1.06819 -0.36834,1.87854 -1.06819,2.46789 -0.69985,0.58935 -1.54703,0.88402 -2.57839,0.88402 z" />
        <path
           inkscape:connector-curvature="0"
           id="path6411"
           style="font-size:36.83420181px;font-family:ProximaNovaBold;fill:#424242"
           d="m 591.15879,-149.54488 5.23046,0 0,-24.56841 -5.23046,0 0,24.56841 z" />
        <path
           inkscape:connector-curvature="0"
           id="path6413"
           style="font-size:36.83420181px;font-family:ProximaNovaBold;fill:#424242"
           d="m 618.21122,-149.54488 5.9303,0 -9.46639,-24.56841 -6.55649,0 -9.46639,24.56841 5.93031,0 1.54704,-4.16226 10.53458,0 1.54704,4.16226 z m -6.81433,-19.33795 3.83076,10.57141 -7.66152,0 3.83076,-10.57141 z" />
        <path
           inkscape:connector-curvature="0"
           id="path6415"
           style="font-size:36.83420181px;font-family:ProximaNovaBold;fill:#424242"
           d="m 643.35401,-149.54488 5.04628,0 0,-24.56841 -5.23045,0 0,15.43353 -11.38177,-15.43353 -5.3778,0 0,24.56841 5.23046,0 0,-16.02287 11.71328,16.02287 z" />
      </g>
    </g>
  </g>
</svg>
